<?xml version="1.0" encoding="UTF-8" standalone="no"?>
<!DOCTYPE svg PUBLIC "-//W3C//DTD SVG 1.1//EN" "http://www.w3.org/Graphics/SVG/1.1/DTD/svg11.dtd">
<svg width="100%" height="100%" viewBox="0 0 96 96" version="1.1" xmlns="http://www.w3.org/2000/svg" xmlns:xlink="http://www.w3.org/1999/xlink" xml:space="preserve" xmlns:serif="http://www.serif.com/" style="fill-rule:evenodd;clip-rule:evenodd;stroke-linejoin:round;stroke-miterlimit:2;">
    <g id="_-7a848cff" serif:id="#7a848cff" transform="matrix(1.1765,0,0,1.1765,-8.46614,-8.43937)">
        <path d="M21.54,18.07C25.8,14.31 30.83,11.48 36.25,9.76C40.03,15.2 47.64,17.69 53.74,14.74C56.22,13.71 58.08,11.72 59.8,9.73C65.17,11.51 70.17,14.34 74.46,18.04C71.95,23.28 72.69,29.96 76.84,34.15C79.38,36.95 83.1,38.28 86.8,38.58C88.14,44.08 88.23,49.8 87.3,55.38C80.94,55.37 74.83,59.8 73.38,66.07C72.28,69.87 73.32,73.86 75.14,77.25C70.96,81.07 66.03,84.03 60.68,85.88C57.78,80.04 50.76,76.66 44.42,78.46C40.44,79.43 37.26,82.37 35.32,85.9C29.97,84.01 24.99,81.1 20.81,77.26C24.07,71.88 23.69,64.44 19.17,59.88C16.52,56.91 12.56,55.64 8.68,55.41C7.65,49.83 7.83,44.09 9.16,38.58C14.83,38.3 20.3,34.73 22.16,29.25C23.6,25.62 23.04,21.58 21.54,18.07M51.4,32C47.29,41.98 43.25,51.99 39.03,61.93C40.66,61.91 42.3,61.9 43.94,61.9C48.15,51.94 52.41,42 56.54,32L51.4,32M59.59,37.88C59.58,39.26 59.57,40.63 59.54,42.01C63.54,43.86 67.66,45.4 71.62,47.32C67.63,49.02 63.6,50.61 59.59,52.26C59.62,53.56 59.66,54.86 59.68,56.17C65.21,53.76 70.71,51.26 76.16,48.68C76.19,48 76.24,46.63 76.26,45.95C70.78,43.11 65.17,40.51 59.59,37.88M19.69,46.1C19.69,46.81 19.7,48.21 19.7,48.92C25.23,51.43 30.77,53.95 36.32,56.43C36.38,55.49 36.5,53.6 36.56,52.66C32.69,50.59 28.5,49.26 24.48,47.56C28.38,45.59 32.53,44.15 36.46,42.23C36.46,41.19 36.45,39.09 36.45,38.05C30.87,40.74 25.24,43.34 19.69,46.1Z" style="fill:rgb(122,132,140);fill-rule:nonzero;"/>
    </g>
    <g id="_-f6f6f6ff" serif:id="#f6f6f6ff" transform="matrix(1.1765,0,0,1.1765,-8.46614,-8.43937)">
        <path d="M51.4,32L56.54,32C52.41,42 48.15,51.94 43.94,61.9C42.3,61.9 40.66,61.91 39.03,61.93C43.25,51.99 47.29,41.98 51.4,32Z" style="fill:rgb(246,246,246);fill-rule:nonzero;"/>
        <path d="M59.59,37.88C65.17,40.51 70.78,43.11 76.26,45.95C76.24,46.63 76.19,48 76.16,48.68C70.71,51.26 65.21,53.76 59.68,56.17C59.66,54.86 59.62,53.56 59.59,52.26C63.6,50.61 67.63,49.02 71.62,47.32C67.66,45.4 63.54,43.86 59.54,42.01C59.57,40.63 59.58,39.26 59.59,37.88Z" style="fill:rgb(246,246,246);fill-rule:nonzero;"/>
        <path d="M19.69,46.1C25.24,43.34 30.87,40.74 36.45,38.05C36.45,39.09 36.46,41.19 36.46,42.23C32.53,44.15 28.38,45.59 24.48,47.56C28.5,49.26 32.69,50.59 36.56,52.66C36.5,53.6 36.38,55.49 36.32,56.43C30.77,53.95 25.23,51.43 19.7,48.92C19.7,48.21 19.69,46.81 19.69,46.1Z" style="fill:rgb(246,246,246);fill-rule:nonzero;"/>
    </g>
</svg>
