<?xml version="1.0" encoding="UTF-8" ?>
<!DOCTYPE svg PUBLIC "-//W3C//DTD SVG 1.1//EN" "http://www.w3.org/Graphics/SVG/1.1/DTD/svg11.dtd">
<svg width="96pt" height="96pt" viewBox="0 0 96 96" version="1.1" xmlns="http://www.w3.org/2000/svg">
<g id="#7a848cff">
<path fill="#7a848c" opacity="1.00" d=" M 21.54 18.07 C 25.80 14.31 30.83 11.48 36.25 9.76 C 40.03 15.20 47.64 17.69 53.74 14.74 C 56.22 13.71 58.08 11.72 59.80 9.73 C 65.17 11.51 70.17 14.34 74.46 18.04 C 71.95 23.28 72.69 29.96 76.84 34.15 C 79.38 36.95 83.10 38.28 86.80 38.58 C 88.14 44.08 88.23 49.80 87.30 55.38 C 80.94 55.37 74.83 59.80 73.38 66.07 C 72.28 69.87 73.32 73.86 75.14 77.25 C 70.96 81.07 66.03 84.03 60.68 85.88 C 57.78 80.04 50.76 76.66 44.42 78.46 C 40.44 79.43 37.26 82.37 35.32 85.90 C 29.97 84.01 24.99 81.10 20.81 77.26 C 24.07 71.88 23.69 64.44 19.17 59.88 C 16.52 56.91 12.56 55.64 8.68 55.41 C 7.65 49.83 7.83 44.09 9.16 38.58 C 14.83 38.30 20.30 34.73 22.16 29.25 C 23.60 25.62 23.04 21.58 21.54 18.07 M 51.40 32.00 C 47.29 41.98 43.25 51.99 39.03 61.93 C 40.66 61.91 42.30 61.90 43.94 61.90 C 48.15 51.94 52.41 42.00 56.54 32.00 C 54.82 32.00 53.11 32.00 51.40 32.00 M 59.59 37.88 C 59.58 39.26 59.57 40.63 59.54 42.01 C 63.54 43.86 67.66 45.40 71.62 47.32 C 67.63 49.02 63.60 50.61 59.59 52.26 C 59.62 53.56 59.66 54.86 59.68 56.17 C 65.21 53.76 70.71 51.26 76.16 48.68 C 76.19 48.00 76.24 46.63 76.26 45.95 C 70.78 43.11 65.17 40.51 59.59 37.88 M 19.69 46.10 C 19.69 46.81 19.70 48.21 19.70 48.92 C 25.23 51.43 30.77 53.95 36.32 56.43 C 36.38 55.49 36.50 53.60 36.56 52.66 C 32.69 50.59 28.50 49.26 24.48 47.56 C 28.38 45.59 32.53 44.15 36.46 42.23 C 36.46 41.19 36.45 39.09 36.45 38.05 C 30.87 40.74 25.24 43.34 19.69 46.10 Z" />
</g>
<g id="#f6f6f6ff">
<path fill="#f6f6f6" opacity="1.00" d=" M 51.40 32.00 C 53.11 32.00 54.82 32.00 56.54 32.00 C 52.41 42.00 48.15 51.94 43.94 61.90 C 42.30 61.90 40.66 61.91 39.03 61.93 C 43.25 51.99 47.29 41.98 51.40 32.00 Z" />
<path fill="#f6f6f6" opacity="1.00" d=" M 59.59 37.88 C 65.17 40.51 70.78 43.11 76.26 45.95 C 76.24 46.63 76.19 48.00 76.16 48.68 C 70.71 51.26 65.21 53.76 59.68 56.17 C 59.66 54.86 59.62 53.56 59.59 52.26 C 63.60 50.61 67.63 49.02 71.62 47.32 C 67.66 45.40 63.54 43.86 59.54 42.01 C 59.57 40.63 59.58 39.26 59.59 37.88 Z" />
<path fill="#f6f6f6" opacity="1.00" d=" M 19.69 46.10 C 25.24 43.34 30.87 40.74 36.45 38.05 C 36.45 39.09 36.46 41.19 36.46 42.23 C 32.53 44.15 28.38 45.59 24.48 47.56 C 28.50 49.26 32.69 50.59 36.56 52.66 C 36.50 53.60 36.38 55.49 36.32 56.43 C 30.77 53.95 25.23 51.43 19.70 48.92 C 19.70 48.21 19.69 46.81 19.69 46.10 Z" />
</g>
</svg>
